# Blender 3.3.1
# www.blender.org
o scheibe_mesh
v 0.024316 0.005810 -0.000000
v 0.025000 -0.000000 0.000000
v 0.020374 0.002251 -0.000000
v 0.022477 0.010944 -0.000000
v 0.018240 0.007124 -0.000000
v 0.019607 0.015510 -0.000000
v 0.016087 0.012425 -0.000000
v 0.015663 0.019485 -0.000000
v 0.010751 0.022570 -0.000000
v 0.010635 0.015197 -0.000000
v 0.005582 0.024369 -0.000000
v 0.005406 0.017952 -0.000000
v 0.000145 0.025000 -0.000000
v 0.000109 0.020477 -0.000000
v -0.005276 0.024437 -0.000000
v -0.010509 0.022684 -0.000000
v -0.005328 0.018734 -0.000000
v -0.015254 0.019807 -0.000000
v -0.010483 0.016092 -0.000000
v -0.019113 0.016115 -0.000000
v -0.015503 0.012871 -0.000000
v -0.022249 0.011401 -0.000000
v -0.024301 0.005869 -0.000000
v -0.017345 0.006931 -0.000000
v -0.025000 0.000045 -0.000000
v -0.019021 0.001455 -0.000000
v -0.024407 -0.005412 0.000000
v -0.020022 -0.004655 0.000000
v -0.022623 -0.010639 0.000000
v -0.019607 -0.015510 0.000000
v -0.017044 -0.009542 0.000000
v -0.015905 -0.019288 0.000000
v -0.013829 -0.014197 0.000000
v -0.011112 -0.022395 0.000000
v -0.009459 -0.018332 0.000000
v -0.005654 -0.024352 0.000000
v 0.000091 -0.025000 0.000000
v -0.003128 -0.017312 0.000000
v 0.005501 -0.024387 0.000000
v 0.002978 -0.017834 0.000000
v 0.010651 -0.022618 0.000000
v 0.009134 -0.017983 0.000000
v 0.015315 -0.019760 0.000000
v 0.019263 -0.015935 0.000000
v 0.013392 -0.013213 0.000000
v 0.022466 -0.010968 0.000000
v 0.018235 -0.008799 0.000000
v 0.024401 -0.005438 0.000000
v 0.019167 -0.002855 0.000000
v 0.011830 0.007973 -0.000000
v 0.005057 0.009665 -0.000000
v -0.000132 0.014589 -0.000000
v -0.005650 0.012856 -0.000000
v -0.009919 0.008266 -0.000000
v -0.012938 0.002461 -0.000000
v -0.014155 -0.003460 0.000000
v 0.007127 -0.011294 0.000000
v -0.008332 -0.013539 0.000000
v 0.000835 -0.010221 0.000000
v -0.004865 -0.009876 0.000000
v 0.012000 -0.005241 0.000000
v 0.014630 0.001751 -0.000000
v -0.010652 -0.008406 0.000000
v 0.008224 0.001991 -0.000000
v -0.002402 0.007535 -0.000000
v -0.005114 -0.001593 0.000000
v 0.004248 -0.004126 0.000000
v 0.022405 0.011090 0.005000
v 0.001884 0.002576 -0.000000
v 0.025000 -0.000000 0.005000
v 0.024408 0.005410 0.005000
v 0.020695 0.002454 0.005000
v 0.019162 0.016057 0.005000
v 0.017604 0.011360 0.005000
v 0.015130 0.019902 0.005000
v 0.009986 0.022919 0.005000
v 0.010725 0.017526 0.005000
v 0.004329 0.024622 0.005000
v -0.001570 0.024951 0.005000
v 0.001037 0.019759 0.005000
v -0.007381 0.023886 0.005000
v -0.012923 0.021401 0.005000
v -0.007988 0.018401 0.005000
v -0.017584 0.017770 0.005000
v -0.020985 0.013588 0.005000
v -0.016201 0.012693 0.005000
v -0.023426 0.008730 0.005000
v -0.024818 0.003009 0.005000
v -0.019825 0.005132 0.005000
v -0.024831 -0.002899 0.005000
v -0.023458 -0.008645 0.005000
v -0.019747 -0.004903 0.005000
v -0.020570 -0.014208 0.005000
v -0.016662 -0.018638 0.005000
v -0.013805 -0.013752 0.005000
v -0.012324 -0.021751 0.005000
v -0.010136 -0.018149 0.005000
v -0.007350 -0.023895 0.005000
v -0.001538 -0.024953 0.005000
v -0.004702 -0.019201 0.005000
v 0.004360 -0.024617 0.005000
v 0.010015 -0.022906 0.005000
v 0.005864 -0.020111 0.005000
v 0.015200 -0.019849 0.005000
v 0.019433 -0.015728 0.005000
v 0.013671 -0.014113 0.005000
v 0.022445 -0.011010 0.005000
v 0.024302 -0.005867 0.005000
v 0.019849 -0.006924 0.005000
v 0.020112 -0.002083 0.005000
v 0.018892 0.006570 0.005000
v 0.013971 0.014180 0.005000
v 0.005974 0.018366 0.005000
v -0.003748 0.020649 0.005000
v -0.012244 0.015954 0.005000
v -0.019243 0.009569 0.005000
v -0.019809 -0.000049 0.005000
v -0.016806 -0.009184 0.005000
v 0.000834 -0.019890 0.005000
v 0.009860 -0.017356 0.005000
v 0.017111 -0.010270 0.005000
v 0.002427 0.013513 0.005000
v 0.008218 0.011659 0.005000
v 0.015165 0.001821 0.005000
v -0.002776 0.015646 0.005000
v -0.011425 0.010591 0.005000
v -0.015563 0.007671 0.005000
v -0.013639 -0.003245 0.005000
v -0.010181 -0.008389 0.005000
v -0.001460 -0.014249 0.005000
v 0.008037 -0.011857 0.005000
v -0.007283 -0.013597 0.005000
v 0.004120 -0.015294 0.005000
v 0.015418 -0.004513 0.005000
v 0.013271 0.008179 0.005000
v 0.011797 -0.008209 0.005000
v -0.007116 0.012934 0.005000
v -0.014896 0.002384 0.005000
v -0.002114 0.009766 0.005000
v 0.002290 -0.009588 0.005000
v -0.011383 0.005791 0.005000
v -0.005989 -0.003017 0.005000
v 0.008491 0.004066 0.005000
v 0.002949 0.006628 0.005000
v -0.003493 -0.008356 0.005000
v 0.009884 -0.002085 0.005000
v -0.006832 0.007250 0.005000
v 0.006633 -0.006488 0.005000
v -0.008926 0.001599 0.005000
v 0.002115 -0.001828 0.005000
v -0.002755 0.003136 0.005000
vn -0.0000 -0.0000 -1.0000
vn 0.8466 0.5322 -0.0034
vn 0.9415 0.3371 0.0037
vn -0.0000 -0.0000 1.0000
vn 0.9941 0.1088 -0.0000
vn 0.9431 0.3324 0.0092
vn 0.8372 0.5467 0.0147
vn 0.6901 0.7236 0.0132
vn 0.5059 0.8624 0.0172
vn 0.2882 0.9573 0.0237
vn 0.0556 0.9980 0.0288
vn -0.1802 0.9831 0.0325
vn -0.4088 0.9119 0.0366
vn -0.6141 0.7885 0.0349
vn -0.7756 0.6306 0.0283
vn -0.8931 0.4488 0.0295
vn -0.9711 0.2363 0.0348
vn -0.9994 0.0022 0.0350
vn -0.9720 -0.2324 0.0343
vn -0.8870 -0.4604 0.0356
vn -0.7496 -0.6613 0.0278
vn -0.5830 -0.8123 0.0173
vn -0.3957 -0.9181 0.0222
vn -0.1789 -0.9834 0.0292
vn 0.0568 -0.9980 0.0279
vn 0.2895 -0.9569 0.0221
vn 0.5079 -0.8613 0.0149
vn 0.6975 -0.7165 0.0060
vn 0.8429 -0.5381 -0.0011
vn 0.9406 -0.3396 0.0010
vn 0.9929 -0.1182 0.0096
vn 0.9940 -0.1094 -0.0000
vn 0.9931 0.1170 -0.0089
vn 0.7098 0.7043 -0.0138
vn 0.5318 0.8468 -0.0139
vn 0.3286 0.9443 -0.0156
vn 0.1152 0.9931 -0.0215
vn -0.1032 0.9943 -0.0257
vn -0.3175 0.9478 -0.0291
vn -0.5182 0.8547 -0.0309
vn -0.6910 0.7223 -0.0279
vn -0.8322 0.5536 -0.0318
vn -0.9370 0.3476 -0.0349
vn -0.9923 0.1190 -0.0345
vn -0.9937 -0.1080 -0.0301
vn -0.9460 -0.3229 -0.0291
vn -0.8499 -0.5263 -0.0267
vn -0.7141 -0.6998 -0.0171
vn -0.5438 -0.8389 -0.0239
vn -0.3375 -0.9409 -0.0285
vn -0.1120 -0.9933 -0.0271
vn 0.1125 -0.9935 -0.0200
vn 0.3249 -0.9456 -0.0133
vn 0.8405 -0.5418 -0.0061
vn 0.9438 -0.3304 -0.0095
vn 0.5225 -0.8527 -0.0031
vn 0.6958 -0.7182 0.0033
s 0
f 1//1 2//1 3//1
f 4//1 1//1 5//1
f 1//1 3//1 5//1
f 6//1 4//1 7//1
f 4//1 5//1 7//1
f 8//1 6//1 7//1
f 9//1 8//1 10//1
f 8//1 7//1 10//1
f 11//1 9//1 12//1
f 9//1 10//1 12//1
f 13//1 11//1 14//1
f 15//1 13//1 14//1
f 11//1 12//1 14//1
f 16//1 15//1 17//1
f 15//1 14//1 17//1
f 18//1 16//1 19//1
f 16//1 17//1 19//1
f 20//1 18//1 21//1
f 18//1 19//1 21//1
f 22//1 20//1 21//1
f 23//1 22//1 24//1
f 22//1 21//1 24//1
f 25//1 23//1 26//1
f 23//1 24//1 26//1
f 27//1 25//1 28//1
f 29//1 27//1 28//1
f 25//1 26//1 28//1
f 30//1 29//1 31//1
f 32//1 30//1 33//1
f 30//1 31//1 33//1
f 34//1 32//1 35//1
f 32//1 33//1 35//1
f 36//1 34//1 35//1
f 37//1 36//1 38//1
f 36//1 35//1 38//1
f 39//1 37//1 40//1
f 37//1 38//1 40//1
f 41//1 39//1 42//1
f 43//1 41//1 42//1
f 39//1 40//1 42//1
f 44//1 43//1 45//1
f 46//1 44//1 47//1
f 44//1 45//1 47//1
f 48//1 46//1 47//1
f 2//1 48//1 49//1
f 3//1 2//1 49//1
f 48//1 47//1 49//1
f 29//1 28//1 31//1
f 45//1 43//1 42//1
f 7//1 5//1 50//1
f 10//1 7//1 50//1
f 12//1 10//1 51//1
f 10//1 50//1 51//1
f 14//1 12//1 52//1
f 17//1 14//1 52//1
f 19//1 17//1 53//1
f 17//1 52//1 53//1
f 21//1 19//1 54//1
f 19//1 53//1 54//1
f 24//1 21//1 54//1
f 26//1 24//1 55//1
f 24//1 54//1 55//1
f 28//1 26//1 56//1
f 45//1 42//1 57//1
f 31//1 28//1 56//1
f 35//1 33//1 58//1
f 38//1 35//1 58//1
f 40//1 38//1 59//1
f 58//1 60//1 38//1
f 42//1 40//1 57//1
f 47//1 45//1 61//1
f 45//1 57//1 61//1
f 5//1 3//1 62//1
f 50//1 5//1 62//1
f 3//1 49//1 62//1
f 40//1 59//1 57//1
f 52//1 12//1 51//1
f 26//1 55//1 56//1
f 47//1 61//1 49//1
f 33//1 31//1 63//1
f 58//1 33//1 63//1
f 31//1 56//1 63//1
f 51//1 50//1 64//1
f 53//1 52//1 65//1
f 54//1 53//1 65//1
f 52//1 51//1 65//1
f 55//1 54//1 66//1
f 54//1 65//1 66//1
f 49//1 61//1 62//1
f 59//1 38//1 60//1
f 58//1 63//1 60//1
f 57//1 59//1 67//1
f 56//1 55//1 66//1
f 63//1 56//1 66//1
f 4//2 6//2 68//2
f 50//1 62//1 64//1
f 65//1 51//1 69//1
f 66//1 65//1 69//1
f 51//1 64//1 69//1
f 61//1 57//1 67//1
f 61//1 67//1 64//1
f 61//1 64//1 62//1
f 60//1 63//1 66//1
f 67//1 59//1 66//1
f 64//1 67//1 69//1
f 67//1 66//1 69//1
f 1//3 4//3 68//3
f 66//1 59//1 60//1
f 70//4 71//4 72//4
f 68//4 73//4 74//4
f 75//4 76//4 77//4
f 78//4 79//4 80//4
f 81//4 82//4 83//4
f 84//4 85//4 86//4
f 87//4 88//4 89//4
f 90//4 91//4 92//4
f 93//4 94//4 95//4
f 94//4 96//4 97//4
f 95//4 94//4 97//4
f 96//4 98//4 97//4
f 98//4 99//4 100//4
f 101//4 102//4 103//4
f 104//4 105//4 106//4
f 107//4 108//4 109//4
f 108//4 70//4 110//4
f 109//4 108//4 110//4
f 70//4 72//4 110//4
f 71//4 68//4 111//4
f 73//4 75//4 112//4
f 76//4 78//4 113//4
f 79//4 81//4 114//4
f 82//4 84//4 115//4
f 85//4 87//4 116//4
f 88//4 90//4 117//4
f 91//4 93//4 118//4
f 98//4 100//4 97//4
f 99//4 101//4 119//4
f 102//4 104//4 120//4
f 105//4 107//4 121//4
f 112//4 75//4 77//4
f 71//4 111//4 72//4
f 74//4 73//4 112//4
f 77//4 76//4 113//4
f 80//4 79//4 114//4
f 83//4 82//4 115//4
f 86//4 85//4 116//4
f 89//4 88//4 117//4
f 92//4 91//4 118//4
f 100//4 99//4 119//4
f 106//4 105//4 121//4
f 111//4 68//4 74//4
f 113//4 78//4 80//4
f 114//4 81//4 83//4
f 115//4 84//4 86//4
f 116//4 87//4 89//4
f 117//4 90//4 92//4
f 118//4 93//4 95//4
f 120//4 104//4 106//4
f 121//4 107//4 109//4
f 119//4 101//4 103//4
f 102//4 120//4 103//4
f 113//4 80//4 122//4
f 77//4 113//4 123//4
f 113//4 122//4 123//4
f 72//4 111//4 124//4
f 80//4 114//4 125//4
f 122//4 80//4 125//4
f 114//4 83//4 125//4
f 115//4 86//4 126//4
f 86//4 116//4 127//4
f 126//4 86//4 127//4
f 116//4 89//4 127//4
f 117//4 92//4 128//4
f 92//4 118//4 128//4
f 118//4 95//4 129//4
f 100//4 119//4 130//4
f 120//4 106//4 131//4
f 97//4 100//4 132//4
f 95//4 97//4 132//4
f 100//4 130//4 132//4
f 103//4 120//4 133//4
f 119//4 103//4 133//4
f 120//4 131//4 133//4
f 121//4 109//4 134//4
f 112//4 77//4 123//4
f 74//4 112//4 135//4
f 111//4 74//4 135//4
f 112//4 123//4 135//4
f 106//4 121//4 136//4
f 131//4 106//4 136//4
f 121//4 134//4 136//4
f 111//4 135//4 124//4
f 83//4 115//4 137//4
f 125//4 83//4 137//4
f 115//4 126//4 137//4
f 130//4 119//4 133//4
f 89//4 117//4 138//4
f 127//4 89//4 138//4
f 117//4 128//4 138//4
f 128//4 118//4 129//4
f 129//4 95//4 132//4
f 72//4 124//4 110//4
f 134//4 109//4 110//4
f 122//4 125//4 139//4
f 125//4 137//4 139//4
f 130//4 133//4 140//4
f 133//4 131//4 140//4
f 126//4 127//4 141//4
f 127//4 138//4 141//4
f 128//4 129//4 142//4
f 124//4 135//4 143//4
f 110//4 124//4 134//4
f 123//4 122//4 144//4
f 122//4 139//4 144//4
f 129//4 132//4 145//4
f 142//4 129//4 145//4
f 132//4 130//4 145//4
f 135//4 123//4 143//4
f 134//4 124//4 146//4
f 136//4 134//4 146//4
f 124//4 143//4 146//4
f 137//4 126//4 147//4
f 139//4 137//4 147//4
f 126//4 141//4 147//4
f 130//4 140//4 145//4
f 140//4 131//4 148//4
f 131//4 136//4 148//4
f 138//4 128//4 149//4
f 128//4 142//4 149//4
f 123//4 144//4 143//4
f 143//4 144//4 150//4
f 144//4 139//4 151//4
f 150//4 144//4 151//4
f 139//4 147//4 151//4
f 145//4 140//4 150//4
f 142//4 145//4 150//4
f 148//4 136//4 146//4
f 141//4 138//4 149//4
f 141//4 149//4 147//4
f 146//4 143//4 150//4
f 150//4 151//4 142//4
f 148//4 146//4 150//4
f 140//4 148//4 150//4
f 147//4 149//4 151//4
f 149//4 142//4 151//4
f 71//5 70//5 2//5
f 68//6 71//6 1//6
f 73//7 68//7 6//7
f 75//8 73//8 8//8
f 76//9 75//9 9//9
f 78//10 76//10 11//10
f 79//11 78//11 13//11
f 81//12 79//12 15//12
f 82//13 81//13 16//13
f 84//14 82//14 18//14
f 85//15 84//15 20//15
f 87//16 85//16 22//16
f 88//17 87//17 23//17
f 90//18 88//18 25//18
f 91//19 90//19 27//19
f 93//20 91//20 29//20
f 94//21 93//21 30//21
f 96//22 94//22 32//22
f 98//23 96//23 34//23
f 99//24 98//24 36//24
f 101//25 99//25 37//25
f 102//26 101//26 39//26
f 104//27 102//27 41//27
f 105//28 104//28 44//28
f 107//29 105//29 46//29
f 108//30 107//30 46//30
f 70//31 108//31 48//31
f 2//32 70//32 48//32
f 2//33 1//33 71//33
f 6//34 8//34 73//34
f 8//35 9//35 75//35
f 9//36 11//36 76//36
f 11//37 13//37 78//37
f 13//38 15//38 79//38
f 15//39 16//39 81//39
f 16//40 18//40 82//40
f 18//41 20//41 84//41
f 20//42 22//42 85//42
f 22//43 23//43 87//43
f 23//44 25//44 88//44
f 25//45 27//45 90//45
f 27//46 29//46 91//46
f 29//47 30//47 93//47
f 30//48 32//48 94//48
f 32//49 34//49 96//49
f 34//50 36//50 98//50
f 36//51 37//51 99//51
f 37//52 39//52 101//52
f 39//53 41//53 102//53
f 44//54 46//54 105//54
f 46//55 48//55 108//55
f 104//56 41//56 43//56
f 104//57 43//57 44//57
